<?xml version="1.0" encoding="UTF-8"?>
<svg xmlns="http://www.w3.org/2000/svg" xmlns:xlink="http://www.w3.org/1999/xlink" width="30pt" height="30pt" viewBox="0 0 30 30" version="1.1">
<g id="surface13080893">
<path style=" stroke:none;fill-rule:nonzero;fill:rgb(80%,80%,80%);fill-opacity:1;" d="M 3.75 30 C 1.679688 30 0 28.320312 0 26.25 L 0 3.75 C 0 1.679688 1.679688 0 3.75 0 L 26.25 0 C 28.320312 0 30 1.679688 30 3.75 L 30 26.25 C 30 28.320312 28.320312 30 26.25 30 Z M 3.75 30 "/>
<path style=" stroke:none;fill-rule:nonzero;fill:rgb(0%,0%,0%);fill-opacity:1;" d="M 14.238281 5.601562 C 13.390625 5.601562 12.710938 6.285156 12.710938 7.128906 L 6.601562 7.128906 C 5.757812 7.128906 5.074219 7.8125 5.074219 8.65625 L 5.074219 15.527344 C 5.074219 16.371094 5.757812 17.054688 6.601562 17.054688 L 23.398438 17.054688 C 24.242188 17.054688 24.925781 16.371094 24.925781 15.527344 L 24.925781 8.65625 C 24.925781 7.8125 24.242188 7.128906 23.398438 7.128906 L 17.289062 7.128906 C 17.289062 6.285156 16.609375 5.601562 15.761719 5.601562 Z M 15 14 C 15.421875 14 15.761719 14.34375 15.761719 14.761719 C 15.761719 15.183594 15.421875 15.527344 15 15.527344 C 14.578125 15.527344 14.238281 15.183594 14.238281 14.761719 C 14.238281 14.34375 14.578125 14 15 14 Z M 5.074219 18.15625 L 5.074219 20.871094 C 5.074219 21.714844 5.757812 22.398438 6.601562 22.398438 L 23.398438 22.398438 C 24.242188 22.398438 24.925781 21.714844 24.925781 20.871094 L 24.925781 18.15625 C 24.476562 18.417969 23.957031 18.582031 23.398438 18.582031 L 6.601562 18.582031 C 6.042969 18.582031 5.523438 18.417969 5.074219 18.15625 Z M 5.074219 18.15625 "/>
</g>
</svg>
