<?xml version="1.0" encoding="UTF-8"?>
<svg xmlns="http://www.w3.org/2000/svg" xmlns:xlink="http://www.w3.org/1999/xlink" width="30pt" height="30pt" viewBox="0 0 30 30" version="1.1">
<g id="surface13082140">
<path style=" stroke:none;fill-rule:nonzero;fill:rgb(80%,80%,80%);fill-opacity:1;" d="M 3.75 30 C 1.679688 30 0 28.320312 0 26.25 L 0 3.75 C 0 1.679688 1.679688 0 3.75 0 L 26.25 0 C 28.320312 0 30 1.679688 30 3.75 L 30 26.25 C 30 28.320312 28.320312 30 26.25 30 Z M 3.75 30 "/>
<path style=" stroke:none;fill-rule:nonzero;fill:rgb(0%,0%,0%);fill-opacity:1;" d="M 22.765625 10.035156 L 17.566406 4.835938 C 17.414062 4.683594 17.210938 4.601562 17 4.601562 L 8.601562 4.601562 C 7.714844 4.601562 7 5.316406 7 6.199219 L 7 23.800781 C 7 24.683594 7.714844 25.398438 8.601562 25.398438 L 21.398438 25.398438 C 22.285156 25.398438 23 24.683594 23 23.800781 L 23 10.601562 C 23 10.386719 22.914062 10.183594 22.765625 10.035156 Z M 17.398438 19.800781 L 11 19.800781 C 10.558594 19.800781 10.199219 19.441406 10.199219 19 C 10.199219 18.558594 10.558594 18.199219 11 18.199219 L 17.398438 18.199219 C 17.839844 18.199219 18.199219 18.558594 18.199219 19 C 18.199219 19.441406 17.839844 19.800781 17.398438 19.800781 Z M 19 16.601562 L 11 16.601562 C 10.558594 16.601562 10.199219 16.242188 10.199219 15.800781 C 10.199219 15.359375 10.558594 15 11 15 L 19 15 C 19.441406 15 19.800781 15.359375 19.800781 15.800781 C 19.800781 16.242188 19.441406 16.601562 19 16.601562 Z M 17.398438 11 C 16.957031 11 16.601562 10.640625 16.601562 10.199219 L 16.601562 6.125 L 21.476562 11 Z M 17.398438 11 "/>
</g>
</svg>
