<?xml version="1.0" encoding="UTF-8"?>
<svg xmlns="http://www.w3.org/2000/svg" xmlns:xlink="http://www.w3.org/1999/xlink" width="30pt" height="30pt" viewBox="0 0 30 30" version="1.1">
<g id="surface13082899">
<path style=" stroke:none;fill-rule:nonzero;fill:rgb(80%,80%,80%);fill-opacity:1;" d="M 3.75 30 C 1.679688 30 0 28.320312 0 26.25 L 0 3.75 C 0 1.679688 1.679688 0 3.75 0 L 26.25 0 C 28.320312 0 30 1.679688 30 3.75 L 30 26.25 C 30 28.320312 28.320312 30 26.25 30 Z M 3.75 30 "/>
<path style=" stroke:none;fill-rule:nonzero;fill:rgb(0%,0%,0%);fill-opacity:1;" d="M 17.398438 18.199219 L 17.398438 16.601562 C 17.761719 16.421875 18.789062 15.195312 18.898438 14.238281 C 19.179688 14.21875 19.625 13.957031 19.757812 12.929688 C 19.828125 12.378906 19.546875 12.070312 19.378906 11.972656 C 19.378906 11.972656 19.800781 11.167969 19.800781 10.199219 C 19.800781 8.257812 19.039062 6.601562 17.398438 6.601562 C 17.398438 6.601562 16.832031 5.402344 15 5.402344 C 11.605469 5.402344 10.199219 7.578125 10.199219 10.199219 C 10.199219 11.085938 10.621094 11.972656 10.621094 11.972656 C 10.453125 12.070312 10.171875 12.378906 10.242188 12.929688 C 10.375 13.957031 10.820312 14.21875 11.101562 14.238281 C 11.210938 15.195312 12.238281 16.421875 12.601562 16.601562 L 12.601562 18.199219 C 11.800781 20.601562 5.398438 19 5.398438 24.601562 L 24.601562 24.601562 C 24.601562 19 18.199219 20.601562 17.398438 18.199219 Z M 17.398438 18.199219 "/>
</g>
</svg>
