<?xml version="1.0" encoding="UTF-8"?>
<svg xmlns="http://www.w3.org/2000/svg" xmlns:xlink="http://www.w3.org/1999/xlink" width="500pt" height="500pt" viewBox="0 0 500 500" version="1.1">
<g id="surface13265263">
<path style=" stroke:none;fill-rule:nonzero;fill:rgb(80%,80%,80%);fill-opacity:1;" d="M 62.5 500 C 27.980469 500 0 472.019531 0 437.5 L 0 62.5 C 0 27.980469 27.980469 0 62.5 0 L 437.5 0 C 472.019531 0 500 27.980469 500 62.5 L 500 437.5 C 500 472.019531 472.019531 500 437.5 500 Z M 62.5 500 "/>
<path style=" stroke:none;fill-rule:nonzero;fill:rgb(0%,0%,0%);fill-opacity:1;" d="M 300.253906 105 C 296.433594 104.90625 293.09375 106.371094 291.375 110.601562 C 288.445312 117.699219 295.734375 124.640625 298.34375 128.265625 C 300.15625 130.78125 302.511719 133.613281 303.816406 136.449219 C 304.675781 138.324219 304.804688 140.203125 305.535156 142.175781 C 307.351562 147.046875 310.246094 152.585938 312.570312 157.105469 C 313.75 159.394531 315.054688 161.78125 316.550781 163.820312 C 317.472656 165.0625 319.03125 165.632812 319.285156 167.542969 C 317.757812 169.707031 317.664062 173.050781 316.804688 175.785156 C 312.921875 188.039062 314.386719 203.285156 320.019531 212.324219 C 321.769531 215.125 325.875 221.078125 331.476562 218.820312 C 336.378906 216.8125 335.296875 210.605469 336.695312 205.101562 C 337.015625 203.890625 336.824219 202.96875 337.460938 202.140625 L 337.460938 202.394531 C 338.925781 205.386719 340.421875 208.378906 341.917969 211.339844 C 345.257812 216.6875 351.148438 222.257812 356.113281 226.042969 C 358.691406 227.984375 360.726562 231.359375 364.070312 232.503906 L 364.070312 232.25 L 363.8125 232.25 C 363.179688 231.230469 362.160156 230.816406 361.332031 230.023438 C 359.390625 228.113281 357.226562 225.726562 355.632812 223.53125 C 351.082031 217.386719 347.074219 210.640625 343.445312 203.636719 C 341.695312 200.292969 340.164062 196.601562 338.703125 193.195312 C 338.128906 191.859375 338.128906 189.886719 336.953125 189.1875 C 335.328125 191.699219 332.972656 193.707031 331.730469 196.667969 C 329.757812 201.375 329.472656 207.136719 328.738281 213.089844 C 328.292969 213.25 328.484375 213.121094 328.261719 213.34375 C 324.792969 212.484375 323.550781 208.921875 322.277344 205.863281 C 319.03125 198.128906 318.394531 185.652344 321.292969 176.773438 C 322.023438 174.449219 325.367188 167.195312 324.027344 165.0625 C 323.390625 162.929688 321.226562 161.71875 320.050781 160.09375 C 318.554688 158.089844 317.089844 155.449219 316.070312 153.125 C 313.398438 147.078125 310.882812 140.074219 308.050781 133.964844 C 306.714844 131.035156 304.453125 128.109375 302.578125 125.5 C 300.507812 122.632812 298.214844 120.53125 296.59375 117.03125 C 296.050781 115.824219 295.257812 113.847656 296.117188 112.574219 C 296.371094 111.714844 296.753906 111.367188 297.613281 111.082031 C 299.042969 109.964844 303.054688 111.429688 304.582031 112.066406 C 308.558594 113.722656 311.902344 115.3125 315.277344 117.542969 C 316.898438 118.625 318.523438 120.691406 320.496094 121.296875 L 322.722656 121.296875 C 326.257812 122.09375 330.171875 121.519531 333.417969 122.539062 C 339.210938 124.289062 344.398438 127.027344 349.078125 129.984375 C 363.433594 139.023438 375.175781 151.914062 383.164062 167.289062 C 384.472656 169.769531 385.042969 172.160156 386.191406 174.769531 C 388.449219 180.050781 391.347656 185.527344 393.636719 190.683594 C 395.898438 195.871094 398.125 201.058594 401.339844 205.355469 C 403.027344 207.617188 409.582031 208.855469 412.542969 210.097656 C 414.613281 210.988281 418.050781 211.914062 419.992188 213.089844 C 423.777344 215.347656 427.40625 218.054688 430.941406 220.570312 C 432.722656 221.8125 438.132812 224.515625 438.417969 226.777344 C 429.667969 226.554688 422.984375 227.347656 417.285156 229.769531 C 415.664062 230.46875 413.050781 230.46875 412.796875 232.503906 C 413.65625 233.429688 413.816406 234.828125 414.515625 235.972656 C 415.886719 238.171875 418.175781 241.128906 420.246094 242.691406 C 422.503906 244.375 424.796875 246.191406 427.214844 247.6875 C 431.480469 250.265625 436.253906 251.761719 440.394531 254.371094 C 442.8125 255.929688 445.261719 257.871094 447.617188 259.589844 C 448.796875 260.480469 449.558594 261.820312 451.085938 262.359375 L 451.085938 262.105469 C 450.292969 261.085938 450.101562 259.6875 449.367188 258.636719 L 446.089844 255.359375 C 442.9375 251.1875 438.929688 247.496094 434.664062 244.441406 C 431.257812 241.988281 423.652344 238.679688 422.25 234.734375 L 421.996094 234.476562 C 424.382812 234.222656 427.214844 233.332031 429.445312 232.726562 C 433.199219 231.742188 436.511719 231.996094 440.363281 231.007812 C 442.113281 230.5 443.863281 229.992188 445.613281 229.511719 L 445.613281 228.496094 C 443.671875 226.519531 442.269531 223.847656 440.136719 222.035156 C 434.570312 217.292969 428.488281 212.546875 422.21875 208.601562 C 418.75 206.40625 414.453125 204.972656 410.792969 203.128906 C 409.550781 202.492188 407.386719 202.171875 406.558594 201.121094 C 404.617188 198.671875 403.566406 195.550781 402.070312 192.6875 C 398.953125 186.671875 395.898438 180.117188 393.128906 173.78125 C 391.25 169.484375 390.007812 165.21875 387.652344 161.335938 C 376.355469 142.78125 364.195312 131.546875 345.355469 120.53125 C 341.34375 118.179688 336.539062 117.285156 331.445312 116.078125 C 328.675781 115.886719 325.96875 115.726562 323.203125 115.566406 C 321.546875 114.867188 319.796875 112.832031 318.234375 111.8125 C 314.320312 109.363281 306.617188 105.097656 300.253906 105 Z M 327.210938 131.992188 C 325.398438 131.960938 324.09375 132.214844 322.722656 132.5 L 322.722656 132.753906 L 322.980469 132.753906 C 323.839844 134.539062 325.398438 135.683594 326.480469 137.210938 C 327.308594 138.960938 328.101562 140.710938 328.929688 142.460938 L 329.183594 142.207031 C 330.714844 141.125 331.445312 139.375 331.445312 136.734375 C 330.808594 136.097656 330.710938 135.269531 330.203125 134.503906 C 329.472656 133.457031 328.101562 132.882812 327.210938 131.992188 Z M 61.507812 235.335938 C 59.058594 235.433594 56.386719 235.910156 53.488281 236.832031 C 48.652344 238.296875 46.261719 241.195312 46.261719 247.082031 L 46.261719 308.703125 L 62.589844 308.703125 L 62.589844 248.578125 L 85.222656 299.980469 C 88.023438 306.378906 91.839844 308.671875 99.320312 308.671875 C 106.832031 308.671875 110.492188 306.378906 113.292969 299.980469 L 135.925781 249.882812 L 135.925781 308.703125 L 152.21875 308.703125 L 152.21875 247.082031 C 152.21875 241.195312 149.863281 238.296875 144.996094 236.832031 C 133.410156 233.171875 125.613281 236.324219 122.109375 244.25 L 98.875 296.511719 L 76.40625 244.25 C 73.859375 238.296875 68.765625 235.050781 61.507812 235.335938 Z M 260.148438 235.371094 C 253.71875 235.371094 233.699219 236.132812 233.699219 251.664062 L 233.699219 261.722656 C 233.699219 268.851562 239.96875 274.675781 253.5625 276.109375 C 255.089844 276.207031 256.617188 276.332031 258.144531 276.332031 C 258.144531 276.332031 273.996094 276.015625 274.441406 276.109375 C 283.605469 276.109375 282.589844 283.238281 282.589844 284.257812 L 282.589844 292.40625 C 282.589844 293.519531 282.332031 300.554688 274.34375 300.554688 L 233.699219 300.554688 L 233.699219 308.703125 L 274.503906 308.703125 C 279.851562 308.703125 285.039062 307.589844 289.175781 305.644531 C 296.050781 302.496094 298.882812 298.230469 298.882812 292.628906 L 298.882812 280.980469 C 298.882812 268.472656 283.351562 267.960938 274.441406 267.960938 L 258.144531 267.960938 C 251.746094 267.960938 250.761719 264.078125 249.996094 259.8125 L 249.996094 251.664062 C 250.761719 248.417969 252.191406 244.027344 257.859375 243.519531 L 298.882812 243.519531 L 298.882812 235.371094 Z M 323.167969 235.371094 C 311.136719 237.023438 306.90625 243.007812 306.90625 251.664062 L 306.90625 292.40625 C 306.90625 300.332031 311.328125 305.105469 320.433594 307.589844 C 323.488281 308.449219 326.257812 308.796875 328.867188 308.796875 L 347.007812 308.703125 L 357.671875 308.703125 L 366.742188 316.851562 L 385.074219 316.851562 L 372.472656 305.488281 C 378.390625 303.035156 380.238281 299.28125 380.238281 292.246094 L 380.238281 251.664062 C 380.238281 243.007812 374.605469 237.023438 362.574219 235.371094 Z M 388.511719 235.371094 L 388.511719 292.054688 C 388.511719 301.890625 394.082031 307.429688 408.820312 308.542969 C 410.1875 308.605469 411.589844 308.703125 412.957031 308.703125 L 453.699219 308.703125 L 453.699219 300.554688 L 416.042969 300.554688 C 407.640625 300.554688 404.808594 297.019531 404.808594 291.992188 L 404.808594 235.371094 Z M 332.878906 243.519531 L 353.851562 243.519531 C 359.390625 243.519531 363.113281 247.972656 363.941406 251.664062 C 363.941406 251.664062 364.070312 289.605469 364.070312 292.40625 C 364.070312 295.207031 362.507812 296.480469 362.507812 296.480469 L 358.085938 292.40625 L 339.625 292.40625 L 348.695312 300.554688 L 332.878906 300.554688 C 327.210938 300.554688 324.027344 296.351562 323.203125 292.40625 L 323.203125 252.492188 C 323.203125 248.164062 326.511719 243.519531 332.878906 243.519531 Z M 160.367188 259.8125 C 160.6875 260.132812 160.367188 294.539062 160.367188 295.207031 C 160.496094 302.335938 169.535156 308.574219 183.699219 308.703125 L 209.257812 308.703125 L 209.257812 309.242188 C 209.257812 310.769531 210.371094 315.863281 201.109375 316.851562 C 201.011719 316.851562 160.464844 316.851562 160.367188 316.851562 L 160.367188 325 L 202.859375 325 C 210.050781 324.773438 225.648438 323.152344 225.550781 310.675781 C 225.550781 310.453125 225.617188 259.8125 225.550781 259.8125 L 209.257812 259.8125 L 209.257812 300.554688 C 209 300.554688 189.078125 300.617188 185.066406 300.554688 C 177.203125 300.425781 176.535156 295.9375 176.664062 294.21875 L 176.664062 259.8125 Z M 160.367188 259.8125 "/>
</g>
</svg>
