<?xml version="1.0" encoding="UTF-8"?>
<svg xmlns="http://www.w3.org/2000/svg" xmlns:xlink="http://www.w3.org/1999/xlink" width="500pt" height="500pt" viewBox="0 0 500 500" version="1.1">
<g id="surface13264790">
<path style=" stroke:none;fill-rule:nonzero;fill:rgb(80%,80%,80%);fill-opacity:1;" d="M 62.5 500 C 27.980469 500 0 472.019531 0 437.5 L 0 62.5 C 0 27.980469 27.980469 0 62.5 0 L 437.5 0 C 472.019531 0 500 27.980469 500 62.5 L 500 437.5 C 500 472.019531 472.019531 500 437.5 500 Z M 62.5 500 "/>
<path style=" stroke:none;fill-rule:evenodd;fill:rgb(0%,0%,0%);fill-opacity:1;" d="M 403 79 L 376 385 L 250 421 L 124 385 L 97 79 Z M 176.207031 277 L 212.207031 277 L 213.085938 299.5 L 250 312.085938 L 286.914062 299.5 L 289.585938 259 L 210.414062 259 L 208.585938 223 L 291.414062 223 L 294.085938 187 L 169.914062 187 L 167.207031 151 L 331.914062 151 L 327.414062 223 L 321.085938 326.5 L 250 349.914062 L 178.914062 326.5 Z M 176.207031 277 "/>
</g>
</svg>
