<?xml version="1.0" encoding="UTF-8"?>
<svg xmlns="http://www.w3.org/2000/svg" xmlns:xlink="http://www.w3.org/1999/xlink" width="240pt" height="240pt" viewBox="0 0 240 240" version="1.1">
<g id="surface13234552">
<path style=" stroke:none;fill-rule:nonzero;fill:rgb(80%,80%,80%);fill-opacity:1;" d="M 30 240 C 13.429688 240 0 226.570312 0 210 L 0 30 C 0 13.429688 13.429688 0 30 0 L 210 0 C 226.570312 0 240 13.429688 240 30 L 240 210 C 240 226.570312 226.570312 240 210 240 Z M 30 240 "/>
<path style=" stroke:none;fill-rule:evenodd;fill:rgb(0%,0%,0%);fill-opacity:1;" d="M 109.058594 102.398438 C 107.777344 102.398438 105.707031 102.957031 104.757812 104.632812 L 91.386719 127.761719 L 98.644531 127.796875 L 108.996094 109.859375 L 113.953125 118.300781 L 104.492188 118.300781 L 108.171875 124.609375 L 117.601562 124.609375 L 119.375 127.761719 L 126.667969 127.761719 L 113.265625 104.535156 C 111.886719 102.433594 110.144531 102.398438 109.058594 102.398438 Z M 157.847656 102.433594 L 138.398438 102.433594 C 131.726562 102.433594 126.308594 108.117188 126.308594 115.046875 C 126.308594 122.046875 131.726562 127.664062 138.398438 127.664062 L 151.539062 127.761719 L 157.847656 121.355469 L 138.363281 121.421875 C 134.816406 121.390625 132.679688 117.972656 132.617188 115.082031 C 132.515625 111.960938 134.914062 108.675781 138.398438 108.609375 L 151.539062 108.804688 Z M 63.230469 102.464844 L 63.230469 127.695312 L 69.539062 127.695312 L 69.539062 108.773438 L 77.621094 108.773438 C 80.019531 108.742188 82.152344 109.628906 82.152344 111.894531 C 82.152344 114.160156 80.050781 115.113281 77.882812 115.113281 L 69.539062 115.113281 L 80.246094 127.761719 L 88.460938 127.695312 L 82.023438 120.140625 C 82.023438 120.140625 88.429688 118.234375 88.460938 111.761719 C 88.492188 106.472656 85.273438 102.53125 79.855469 102.464844 Z M 162.148438 102.464844 L 162.148438 125.265625 C 162.148438 125.890625 162.347656 126.515625 162.808594 126.972656 C 163.265625 127.433594 163.859375 127.695312 164.515625 127.695312 L 181.074219 127.761719 L 187.382812 121.390625 L 168.457031 121.390625 L 168.457031 102.464844 Z M 199.996094 102.464844 C 193.722656 102.464844 188.628906 108.148438 188.628906 115.148438 C 188.628906 122.078125 193.789062 127.730469 199.996094 127.730469 L 214.746094 127.761719 L 220.824219 122.636719 L 199.996094 122.636719 C 198.253906 122.671875 195.628906 120.273438 195.464844 117.742188 L 214.746094 117.710938 L 220.792969 112.75 C 220.792969 112.75 201.871094 112.8125 195.429688 112.878906 C 195.398438 109.5625 198.253906 107.460938 199.996094 107.425781 L 214.746094 107.425781 L 220.925781 102.53125 Z M 31.691406 102.5 C 24.988281 102.5 19.074219 108.511719 19.074219 115.441406 C 19.074219 122.40625 24.988281 127.730469 31.691406 127.730469 L 44.308594 127.730469 C 51.007812 127.730469 56.921875 122.078125 56.921875 115.113281 C 56.921875 108.148438 51.007812 102.5 44.308594 102.5 Z M 31.691406 108.804688 L 44.308594 108.804688 C 45.554688 108.839844 50.054688 110.710938 50.023438 115.046875 C 49.992188 119.8125 45.917969 121.390625 44.308594 121.421875 L 31.691406 121.421875 C 28.800781 121.390625 25.875 118.070312 25.875 115.179688 C 25.875 111.632812 29.226562 108.742188 31.691406 108.804688 Z M 31.691406 108.804688 "/>
</g>
</svg>
