<?xml version="1.0" encoding="UTF-8"?>
<svg xmlns="http://www.w3.org/2000/svg" xmlns:xlink="http://www.w3.org/1999/xlink" width="500pt" height="500pt" viewBox="0 0 500 500" version="1.1">
<g id="surface12923209">
<path style=" stroke:none;fill-rule:nonzero;fill:rgb(80%,80%,80%);fill-opacity:1;" d="M 62.5 500 C 27.980469 500 0 472.019531 0 437.5 L 0 62.5 C 0 27.980469 27.980469 0 62.5 0 L 437.5 0 C 472.019531 0 500 27.980469 500 62.5 L 500 437.5 C 500 472.019531 472.019531 500 437.5 500 Z M 62.5 500 "/>
<path style=" stroke:none;fill-rule:nonzero;fill:rgb(0%,0%,0%);fill-opacity:1;" d="M 396.6875 82 L 103.34375 82 C 91.5625 82 82 91.5625 82 103.34375 L 82 396.65625 C 82 408.4375 91.5625 418 103.34375 418 L 396.65625 418 C 408.4375 418 418 408.4375 418 396.6875 L 418 103.34375 C 418 91.5625 408.4375 82 396.6875 82 Z M 266 339.46875 C 266 371.4375 247.25 386 219.875 386 C 195.125 386 177.28125 369.40625 170 354 L 195.15625 338.78125 C 200 347.375 207.375 354 218 354 C 228.15625 354 234 350.03125 234 334.59375 L 234 234 L 266 234 Z M 335.40625 386 C 307.0625 386 290.96875 371.71875 282 354 L 306 338 C 312.53125 348.6875 319.65625 358.90625 334.71875 358.90625 C 347.375 358.90625 354 352.59375 354 343.84375 C 354 333.40625 347.125 329.6875 333.21875 323.59375 L 325.59375 320.3125 C 303.5625 310.9375 288.90625 299.1875 288.90625 274.3125 C 288.90625 251.4375 306.375 234 333.625 234 C 353.03125 234 366.96875 240.75 377.03125 258.4375 L 353.28125 273.71875 C 348.03125 264.3125 342.40625 260.625 333.625 260.625 C 324.6875 260.625 319.03125 266.3125 319.03125 273.71875 C 319.03125 282.875 324.6875 286.5625 337.78125 292.25 L 345.40625 295.53125 C 371.375 306.625 386 317.96875 386 343.46875 C 386 370.9375 364.40625 386 335.40625 386 Z M 335.40625 386 "/>
</g>
</svg>
