<?xml version="1.0" encoding="UTF-8"?>
<svg xmlns="http://www.w3.org/2000/svg" xmlns:xlink="http://www.w3.org/1999/xlink" width="128pt" height="128pt" viewBox="0 0 128 128" version="1.1">
<g id="surface13235247">
<path style=" stroke:none;fill-rule:nonzero;fill:rgb(80%,80%,80%);fill-opacity:1;" d="M 16 128 C 7.164062 128 0 120.835938 0 112 L 0 16 C 0 7.164062 7.164062 0 16 0 L 112 0 C 120.835938 0 128 7.164062 128 16 L 128 112 C 128 120.835938 120.835938 128 112 128 Z M 16 128 "/>
<path style=" stroke:none;fill-rule:nonzero;fill:rgb(0%,0%,0%);fill-opacity:1;" d="M 74.019531 23.199219 C 74.019531 23.199219 89.566406 42.816406 81.585938 64.910156 C 81.585938 64.910156 53.601562 45.078125 39.492188 30.769531 C 39.492188 30.769531 57.046875 56.207031 63.355469 61.421875 C 63.355469 61.421875 52.832031 55.824219 28.4375 35.039062 C 28.4375 35.039062 56.589844 71.632812 69.753906 79.269531 C 69.753906 79.269531 49.789062 92.871094 20.546875 73.644531 C 20.546875 73.640625 35.753906 100.800781 68.203125 100.800781 C 82.78125 100.800781 87.167969 93.230469 94.394531 93.230469 C 101.914062 93.230469 106.425781 100.800781 106.425781 100.800781 C 110.816406 90.078125 99.828125 77.90625 99.828125 77.90625 C 99.828125 77.90625 110.175781 45.320312 74.019531 23.199219 Z M 74.019531 23.199219 "/>
</g>
</svg>
