<?xml version="1.0" encoding="UTF-8"?>
<svg xmlns="http://www.w3.org/2000/svg" xmlns:xlink="http://www.w3.org/1999/xlink" width="500pt" height="500pt" viewBox="0 0 500 500" version="1.1">
<g id="surface13263772">
<path style=" stroke:none;fill-rule:nonzero;fill:rgb(80%,80%,80%);fill-opacity:1;" d="M 62.5 500 C 27.980469 500 0 472.019531 0 437.5 L 0 62.5 C 0 27.980469 27.980469 0 62.5 0 L 437.5 0 C 472.019531 0 500 27.980469 500 62.5 L 500 437.5 C 500 472.019531 472.019531 500 437.5 500 Z M 62.5 500 "/>
<path style=" stroke:none;fill-rule:nonzero;fill:rgb(0%,0%,0%);fill-opacity:1;" d="M 278.6875 24.960938 C 303.4375 82.230469 189.886719 117.597656 179.375 165.339844 C 169.667969 209.144531 246.769531 260.085938 246.800781 260.085938 C 235.09375 241.945312 226.625 226.96875 214.882812 198.738281 C 195.019531 150.996094 335.785156 107.824219 278.691406 24.960938 Z M 353.957031 104.308594 C 353.957031 104.308594 254.539062 110.601562 249.476562 174.234375 C 247.226562 202.570312 275.597656 217.6875 276.441406 238.324219 C 277.074219 255.128906 259.460938 269.15625 259.460938 269.15625 C 259.460938 269.15625 291.417969 263.144531 301.4375 237.445312 C 312.511719 208.933594 279.957031 189.457031 283.226562 166.640625 C 286.390625 144.808594 353.960938 104.308594 353.960938 104.308594 Z M 378.074219 251.296875 C 367.667969 250.839844 356.105469 254.285156 345.625 261.808594 C 366.15625 257.414062 383.523438 269.964844 383.523438 284.449219 C 383.523438 317.074219 336.378906 347.90625 336.378906 347.90625 C 336.378906 347.90625 409.363281 339.574219 409.363281 285.996094 C 409.363281 263.847656 395.371094 252.105469 378.074219 251.296875 Z M 197.65625 251.367188 C 197.65625 251.367188 106.5625 250.136719 106.5625 275.90625 C 106.5625 302.835938 225.847656 304.734375 311.03125 288.140625 C 311.03125 288.140625 333.78125 272.566406 339.824219 266.765625 C 284 278.15625 156.59375 279.667969 156.59375 269.824219 C 156.59375 260.71875 197.65625 251.367188 197.65625 251.367188 Z M 175.644531 301.5 C 161.6875 301.5 140.84375 312.292969 140.84375 322.699219 C 140.84375 343.617188 246.0625 359.753906 323.96875 329.167969 L 297.003906 312.644531 C 244.199219 329.554688 146.855469 324.140625 175.644531 301.5 Z M 188.621094 348.292969 C 169.457031 348.292969 157.050781 360.105469 157.050781 368.824219 C 157.050781 395.683594 271.414062 398.390625 316.730469 371.074219 L 287.9375 352.757812 C 254.082031 367.066406 169.074219 369 188.621094 348.292969 Z M 124.8125 372.621094 C 93.59375 371.988281 73.308594 386.015625 73.308594 397.652344 C 73.269531 459.527344 393.019531 456.539062 393.019531 393.292969 C 393.019531 382.816406 380.644531 377.824219 376.175781 375.433594 C 402.300781 435.902344 114.71875 431.226562 114.71875 395.542969 C 114.71875 387.421875 135.8125 379.441406 155.429688 383.273438 L 138.800781 373.816406 C 133.914062 373.078125 129.238281 372.691406 124.808594 372.621094 Z M 426.730469 414.246094 C 378.109375 460.300781 254.921875 477.105469 131.03125 448.664062 C 254.886719 499.324219 426.097656 470.8125 426.730469 414.246094 Z M 426.730469 414.246094 "/>
</g>
</svg>
