<?xml version="1.0" encoding="UTF-8"?>
<svg xmlns="http://www.w3.org/2000/svg" xmlns:xlink="http://www.w3.org/1999/xlink" width="480pt" height="480pt" viewBox="0 0 480 480" version="1.1">
<g id="surface13219409">
<path style=" stroke:none;fill-rule:nonzero;fill:rgb(80%,80%,80%);fill-opacity:1;" d="M 60 480 C 26.863281 480 0 453.136719 0 420 L 0 60 C 0 26.863281 26.863281 0 60 0 L 420 0 C 453.136719 0 480 26.863281 480 60 L 480 420 C 480 453.136719 453.136719 480 420 480 Z M 60 480 "/>
<path style=" stroke:none;fill-rule:nonzero;fill:rgb(0%,0%,0%);fill-opacity:1;" d="M 240 412.800781 C 335.429688 412.800781 412.800781 335.429688 412.800781 240 C 412.800781 144.570312 335.429688 67.199219 240 67.199219 C 144.570312 67.199219 67.199219 144.570312 67.199219 240 C 67.199219 335.429688 144.570312 412.800781 240 412.800781 Z M 165.8125 319.632812 C 163.074219 323.996094 158.394531 326.398438 153.585938 326.398438 C 150.980469 326.398438 148.34375 325.695312 145.96875 324.210938 C 139.214844 319.992188 137.167969 311.105469 141.390625 304.367188 L 145.277344 298.148438 C 147.769531 297.832031 150.460938 297.601562 153.601562 297.601562 C 162.296875 297.601562 169.511719 300.351562 175.574219 304.007812 Z M 153.601562 283.199219 C 145.652344 283.199219 139.199219 276.75 139.199219 268.800781 C 139.199219 260.851562 145.652344 254.398438 153.601562 254.398438 L 172.621094 254.398438 L 223.023438 173.761719 L 206.1875 146.832031 C 201.984375 140.09375 204.027344 131.207031 210.769531 126.988281 C 217.507812 122.785156 226.390625 124.84375 230.609375 131.566406 L 240 146.585938 L 249.390625 131.566406 C 253.609375 124.8125 262.492188 122.753906 269.230469 126.988281 C 275.984375 131.207031 278.03125 140.09375 273.8125 146.832031 L 206.578125 254.398438 L 252.46875 254.398438 C 256.140625 257.035156 260.203125 261.125 264.496094 267.949219 C 267.675781 273.003906 269.230469 278.160156 270.097656 283.199219 Z M 338.609375 304.367188 C 342.816406 311.105469 340.769531 319.992188 334.03125 324.210938 C 331.65625 325.695312 329.019531 326.398438 326.414062 326.398438 C 321.621094 326.398438 316.925781 323.996094 314.1875 319.632812 L 249.101562 215.492188 C 250.253906 212.625 251.734375 209.542969 253.9375 206.03125 C 257.929688 199.679688 263.039062 195.257812 268.441406 192.089844 L 307.378906 254.398438 L 326.398438 254.398438 C 334.347656 254.398438 340.800781 260.851562 340.800781 268.800781 C 340.800781 276.75 334.347656 283.199219 326.398438 283.199219 L 325.378906 283.199219 Z M 338.609375 304.367188 "/>
</g>
</svg>
