<?xml version="1.0" encoding="UTF-8"?>
<svg xmlns="http://www.w3.org/2000/svg" xmlns:xlink="http://www.w3.org/1999/xlink" width="480pt" height="480pt" viewBox="0 0 480 480" version="1.1">
<g id="surface12878769">
<path style=" stroke:none;fill-rule:nonzero;fill:rgb(80%,80%,80%);fill-opacity:1;" d="M 60 480 C 26.863281 480 0 453.136719 0 420 L 0 60 C 0 26.863281 26.863281 0 60 0 L 420 0 C 453.136719 0 480 26.863281 480 60 L 480 420 C 480 453.136719 453.136719 480 420 480 Z M 60 480 "/>
<path style=" stroke:none;fill-rule:nonzero;fill:rgb(0%,0%,0%);fill-opacity:1;" d="M 375.230469 170.617188 C 373.65625 171.601562 336.179688 192.402344 336.179688 238.523438 C 337.945312 291.117188 383.476562 309.5625 384.257812 309.5625 C 383.476562 310.546875 377.382812 334.6875 359.335938 359.992188 C 345.011719 381.792969 329.113281 403.769531 304.972656 403.769531 C 282.007812 403.769531 273.765625 389.242188 247.269531 389.242188 C 218.816406 389.242188 210.765625 403.769531 188.980469 403.769531 C 164.839844 403.769531 147.761719 380.613281 132.660156 359.019531 C 113.035156 330.757812 96.359375 286.40625 95.769531 243.820312 C 95.371094 221.253906 99.699219 199.070312 110.683594 180.230469 C 126.183594 153.925781 153.855469 136.070312 184.078125 135.480469 C 207.230469 134.699219 227.839844 151.378906 241.972656 151.378906 C 255.515625 151.378906 280.832031 135.480469 309.480469 135.480469 C 321.84375 135.496094 354.816406 139.21875 375.230469 170.617188 Z M 240.011719 130.976562 C 235.890625 110.367188 247.269531 89.761719 257.867188 76.613281 C 271.410156 60.71875 292.800781 49.925781 311.246094 49.925781 C 312.421875 70.535156 304.960938 90.746094 291.621094 105.464844 C 279.65625 121.363281 259.046875 133.332031 240.011719 130.976562 Z M 240.011719 130.976562 "/>
</g>
</svg>
