<?xml version="1.0" encoding="UTF-8"?>
<svg xmlns="http://www.w3.org/2000/svg" xmlns:xlink="http://www.w3.org/1999/xlink" width="500pt" height="500pt" viewBox="0 0 500 500" version="1.1">
<g id="surface13264618">
<path style=" stroke:none;fill-rule:nonzero;fill:rgb(80%,80%,80%);fill-opacity:1;" d="M 62.5 500 C 27.980469 500 0 472.019531 0 437.5 L 0 62.5 C 0 27.980469 27.980469 0 62.5 0 L 437.5 0 C 472.019531 0 500 27.980469 500 62.5 L 500 437.5 C 500 472.019531 472.019531 500 437.5 500 Z M 62.5 500 "/>
<path style=" stroke:none;fill-rule:nonzero;fill:rgb(0%,0%,0%);fill-opacity:1;" d="M 432.460938 45.917969 C 430.773438 44.054688 428.347656 43 425.816406 43 L 74.183594 43 C 71.652344 43 69.226562 44.054688 67.539062 45.917969 C 65.816406 47.78125 64.972656 50.277344 65.21875 52.808594 L 96.894531 407.640625 C 97.210938 411.367188 99.8125 414.460938 103.398438 415.515625 L 247.503906 456.648438 C 248.277344 456.894531 249.121094 457 249.964844 457 C 250.808594 457 251.617188 456.894531 252.425781 456.648438 L 396.636719 415.515625 C 400.222656 414.460938 402.789062 411.367188 403.140625 407.640625 L 434.78125 52.808594 C 435.027344 50.277344 434.183594 47.78125 432.460938 45.917969 Z M 356.628906 168.261719 L 187.316406 168.261719 L 191.359375 214.070312 L 352.550781 214.070312 L 340.457031 349.457031 L 249.929688 376.808594 L 249.050781 376.527344 L 159.578125 349.421875 L 154.691406 294.261719 L 198.53125 294.261719 L 200.429688 315.671875 L 250.457031 326.148438 L 299.570312 315.671875 L 304.808594 257.734375 L 151.421875 257.734375 L 139.503906 124.492188 L 360.53125 124.492188 Z M 356.628906 168.261719 "/>
</g>
</svg>
