<?xml version="1.0" encoding="UTF-8"?>
<svg xmlns="http://www.w3.org/2000/svg" xmlns:xlink="http://www.w3.org/1999/xlink" width="500pt" height="500pt" viewBox="0 0 500 500" version="1.1">
<g id="surface13264511">
<path style=" stroke:none;fill-rule:nonzero;fill:rgb(80%,80%,80%);fill-opacity:1;" d="M 62.5 500 C 27.980469 500 0 472.019531 0 437.5 L 0 62.5 C 0 27.980469 27.980469 0 62.5 0 L 437.5 0 C 472.019531 0 500 27.980469 500 62.5 L 500 437.5 C 500 472.019531 472.019531 500 437.5 500 Z M 62.5 500 "/>
<path style=" stroke:none;fill-rule:nonzero;fill:rgb(0%,0%,0%);fill-opacity:1;" d="M 245.5 43 C 167.207031 43 151 83.429688 151 106.84375 L 151 151 L 241 151 L 241 160 L 106.84375 160 C 77.136719 160 43 183.414062 43 250 C 43 316.585938 77.136719 340 106.84375 340 L 160 340 L 160 286 C 160 266.207031 176.207031 250 196 250 L 304 250 C 319.292969 250 331 238.292969 331 223 L 331 106.84375 C 331 75.34375 301.292969 43 245.5 43 Z M 205 88 C 214.914062 88 223 96.085938 223 106 C 223 115.914062 214.914062 124 205 124 C 195.085938 124 187 115.914062 187 106 C 187 96.085938 195.085938 88 205 88 Z M 340 160 L 340 223 C 340 242.792969 323.792969 259 304 259 L 196 259 C 180.707031 259 169 270.707031 169 286 L 169 393.15625 C 169 424.65625 198.707031 457 254.5 457 C 332.792969 457 349 416.570312 349 393.15625 L 349 349 L 259 349 L 259 340 L 393.15625 340 C 422.863281 340 457 316.585938 457 250 C 457 183.414062 422.863281 160 393.15625 160 Z M 295 376 C 304.914062 376 313 384.085938 313 394 C 313 403.914062 304.914062 412 295 412 C 285.085938 412 277 403.914062 277 394 C 277 384.085938 285.085938 376 295 376 Z M 295 376 "/>
</g>
</svg>
