<?xml version="1.0" encoding="UTF-8"?>
<svg xmlns="http://www.w3.org/2000/svg" xmlns:xlink="http://www.w3.org/1999/xlink" width="512pt" height="512pt" viewBox="0 0 512 512" version="1.1">
<g id="surface12922937">
<path style=" stroke:none;fill-rule:nonzero;fill:rgb(80%,80%,80%);fill-opacity:1;" d="M 64 512 C 28.652344 512 0 483.347656 0 448 L 0 64 C 0 28.652344 28.652344 0 64 0 L 448 0 C 483.347656 0 512 28.652344 512 64 L 512 448 C 512 483.347656 483.347656 512 448 512 Z M 64 512 "/>
<path style=" stroke:none;fill-rule:nonzero;fill:rgb(0%,0%,0%);fill-opacity:1;" d="M 321.804688 128.238281 C 319.808594 128.238281 317.976562 129.839844 317.976562 132.066406 L 317.976562 201.996094 L 302.125 192.75 C 301.132812 192.164062 300.011719 191.878906 298.894531 191.878906 C 297.773438 191.878906 296.65625 192.164062 295.664062 192.75 L 257.566406 214.964844 C 255.582031 216.113281 254.363281 218.230469 254.363281 220.507812 L 254.363281 264.988281 C 254.363281 267.28125 255.582031 269.386719 257.566406 270.53125 L 295.664062 292.746094 C 296.65625 293.332031 297.773438 293.617188 298.894531 293.617188 C 300.011719 293.617188 301.132812 293.332031 302.125 292.746094 L 340.21875 270.53125 C 342.203125 269.386719 343.425781 267.265625 343.425781 264.988281 L 343.425781 143.894531 C 343.425781 141.628906 342.214844 139.546875 340.269531 138.402344 L 323.691406 128.761719 C 323.070312 128.40625 322.441406 128.238281 321.804688 128.238281 Z M 197.105469 191.878906 C 195.992188 191.878906 194.875 192.171875 193.875 192.75 L 155.78125 214.964844 C 153.796875 216.113281 152.574219 218.230469 152.574219 220.507812 L 152.574219 264.988281 C 152.574219 267.28125 153.796875 269.386719 155.78125 270.53125 L 193.875 292.746094 C 195.875 293.90625 198.339844 293.90625 200.335938 292.746094 L 238.433594 270.53125 C 240.417969 269.386719 241.636719 267.265625 241.636719 264.988281 L 241.636719 220.507812 C 241.636719 218.21875 240.417969 216.113281 238.433594 214.964844 L 200.335938 192.75 C 199.339844 192.171875 198.222656 191.878906 197.105469 191.878906 Z M 400.679688 191.878906 C 399.558594 191.878906 398.441406 192.164062 397.449219 192.75 L 359.351562 214.964844 C 357.367188 216.113281 356.148438 218.230469 356.148438 220.507812 L 356.148438 264.988281 C 356.148438 267.28125 357.367188 269.386719 359.351562 270.53125 L 396.304688 292.871094 C 398.289062 294.078125 400.78125 294.089844 402.789062 292.921875 L 420.957031 282.359375 C 422.839844 281.277344 422.851562 278.546875 420.957031 277.4375 L 381.59375 254.253906 L 381.59375 231.417969 L 400.679688 220.308594 L 419.761719 231.417969 L 419.761719 247.320312 C 419.761719 249.445312 421.550781 249.773438 422.746094 249.0625 C 427.554688 246.234375 442.054688 237.828125 442.054688 237.828125 C 444 236.695312 445.210938 234.601562 445.210938 232.335938 L 445.210938 220.507812 C 445.210938 218.21875 443.988281 216.113281 442.003906 214.964844 L 403.910156 192.75 C 402.902344 192.164062 401.796875 191.878906 400.679688 191.878906 Z M 95.320312 191.90625 C 94.203125 191.90625 93.082031 192.191406 92.089844 192.777344 L 53.996094 214.964844 C 52.011719 216.125 50.789062 218.242188 50.789062 220.53125 L 50.789062 277.316406 C 50.789062 280.089844 53.789062 281.808594 56.183594 280.421875 L 73.082031 270.582031 C 75.027344 269.4375 76.238281 267.355469 76.238281 265.089844 L 76.238281 231.46875 L 95.320312 220.335938 L 114.40625 231.46875 L 114.40625 265.089844 C 114.40625 267.355469 115.617188 269.4375 117.5625 270.582031 L 134.460938 280.421875 C 136.851562 281.820312 139.851562 280.089844 139.851562 277.316406 L 139.851562 220.53125 C 139.851562 218.242188 138.632812 216.125 136.648438 214.964844 L 98.550781 192.777344 C 97.558594 192.191406 96.441406 191.90625 95.320312 191.90625 Z M 298.894531 220.308594 L 317.976562 231.441406 L 317.976562 254.054688 L 298.894531 265.1875 L 279.808594 254.054688 L 279.808594 231.441406 Z M 400.679688 230.074219 L 389.769531 236.4375 L 389.769531 249.136719 L 400.679688 255.472656 L 411.585938 249.136719 L 411.585938 236.4375 Z M 246.808594 280.894531 C 245.5 280.894531 244.175781 281.214844 243.03125 281.863281 L 207.246094 302.539062 C 204.890625 303.835938 203.46875 306.390625 203.46875 309.046875 L 203.46875 350.347656 C 203.46875 353.007812 204.957031 355.511719 207.246094 356.859375 L 216.664062 362.226562 C 221.179688 364.453125 222.839844 364.464844 224.890625 364.464844 C 231.632812 364.464844 235.476562 360.429688 235.476562 353.304688 L 235.476562 312.503906 C 235.476562 311.878906 234.992188 311.433594 234.433594 311.433594 L 229.910156 311.433594 C 229.285156 311.433594 228.839844 311.941406 228.839844 312.503906 L 228.839844 353.304688 C 228.839844 356.398438 225.574219 359.570312 220.242188 356.910156 L 210.453125 351.269531 C 210.132812 351.078125 209.90625 350.695312 209.90625 350.324219 L 209.90625 309.023438 C 209.90625 308.65625 210.082031 308.21875 210.453125 308.03125 L 246.234375 287.402344 C 246.617188 287.214844 247.046875 287.214844 247.355469 287.402344 L 283.164062 308.03125 C 283.53125 308.21875 283.710938 308.589844 283.710938 309.023438 L 283.710938 350.324219 C 283.710938 350.757812 283.46875 351.128906 283.164062 351.320312 L 247.355469 372.019531 C 247.035156 372.210938 246.539062 372.210938 246.234375 372.019531 L 237.089844 366.578125 C 236.847656 366.449219 236.460938 366.375 236.222656 366.5 C 233.6875 367.992188 233.183594 368.183594 230.828125 368.988281 C 230.207031 369.175781 229.359375 369.558594 231.152344 370.550781 L 243.03125 377.609375 C 244.214844 378.234375 245.507812 378.605469 246.808594 378.605469 C 248.167969 378.605469 249.492188 378.234375 250.535156 377.558594 L 286.320312 356.859375 C 288.671875 355.5625 290.097656 353.007812 290.097656 350.347656 L 290.097656 309.046875 C 290.097656 306.390625 288.609375 303.898438 286.320312 302.539062 L 250.535156 281.863281 C 249.421875 281.214844 248.117188 280.894531 246.808594 280.894531 Z M 302.621094 299.953125 C 298.96875 299.953125 295.761719 302.90625 295.761719 306.8125 C 295.761719 310.589844 298.839844 313.695312 302.621094 313.695312 C 306.398438 313.695312 309.480469 310.589844 309.480469 306.8125 C 309.480469 302.90625 306.335938 299.890625 302.621094 299.953125 Z M 302.546875 301.046875 C 305.777344 301.046875 308.386719 303.59375 308.386719 306.8125 C 308.386719 309.96875 305.765625 312.574219 302.546875 312.652344 C 299.378906 312.652344 296.804688 310.03125 296.804688 306.8125 C 296.804688 303.59375 299.390625 301.046875 302.546875 301.046875 Z M 300.035156 302.910156 L 300.035156 310.640625 L 301.503906 310.640625 L 301.503906 307.558594 L 302.867188 307.558594 C 303.429688 307.558594 303.5625 307.796875 303.6875 308.230469 C 303.6875 308.292969 303.921875 310.292969 303.988281 310.664062 L 305.578125 310.664062 C 305.398438 310.292969 305.269531 309.238281 305.203125 308.601562 C 305.027344 307.609375 304.96875 306.925781 303.914062 306.863281 C 304.472656 306.671875 305.402344 306.375 305.402344 304.949219 C 305.402344 302.898438 303.625 302.910156 302.695312 302.910156 Z M 301.503906 304.152344 L 302.746094 304.152344 C 303.125 304.152344 303.863281 304.140625 303.863281 305.195312 C 303.863281 305.628906 303.675781 306.328125 302.671875 306.316406 L 301.503906 306.316406 Z M 256.398438 310.464844 C 246.183594 310.464844 240.121094 314.820312 240.121094 321.996094 C 240.121094 329.859375 246.191406 331.960938 255.976562 332.953125 C 267.683594 334.125 268.601562 335.808594 268.601562 338.097656 C 268.601562 342.117188 265.375 343.789062 257.816406 343.789062 C 248.335938 343.789062 246.25 341.4375 245.566406 336.730469 C 245.5 336.234375 245.054688 335.863281 244.496094 335.863281 L 239.847656 335.863281 C 239.289062 335.863281 238.804688 336.308594 238.804688 336.929688 C 238.804688 342.9375 242.078125 350.125 257.742188 350.125 C 269.230469 350.113281 275.734375 345.660156 275.734375 337.851562 C 275.734375 330.113281 270.523438 328.054688 259.503906 326.566406 C 248.359375 325.078125 247.253906 324.332031 247.253906 321.722656 C 247.253906 319.558594 248.167969 316.726562 256.398438 316.726562 C 263.765625 316.726562 266.511719 318.339844 267.632812 323.289062 C 267.757812 323.785156 268.105469 324.082031 268.601562 324.082031 L 273.246094 324.082031 C 273.554688 324.082031 273.816406 323.960938 273.992188 323.785156 C 274.183594 323.542969 274.304688 323.292969 274.242188 322.988281 C 273.503906 314.441406 267.863281 310.464844 256.398438 310.464844 Z M 256.398438 310.464844 "/>
</g>
</svg>
