<?xml version="1.0" encoding="UTF-8"?>
<svg xmlns="http://www.w3.org/2000/svg" xmlns:xlink="http://www.w3.org/1999/xlink" width="500pt" height="500pt" viewBox="0 0 500 500" version="1.1">
<g id="surface13263902">
<path style=" stroke:none;fill-rule:nonzero;fill:rgb(80%,80%,80%);fill-opacity:1;" d="M 62.5 500 C 27.980469 500 0 472.019531 0 437.5 L 0 62.5 C 0 27.980469 27.980469 0 62.5 0 L 437.5 0 C 472.019531 0 500 27.980469 500 62.5 L 500 437.5 C 500 472.019531 472.019531 500 437.5 500 Z M 62.5 500 "/>
<path style=" stroke:none;fill-rule:nonzero;fill:rgb(0%,0%,0%);fill-opacity:1;" d="M 250 43 C 243.566406 43 237.132812 44.617188 231.402344 47.851562 L 79.808594 133.035156 C 68.207031 139.539062 61 151.738281 61 164.816406 L 61 335.183594 C 61 348.261719 68.207031 360.460938 79.808594 366.964844 L 231.402344 452.148438 C 237.132812 455.382812 243.566406 457 250 457 C 256.433594 457 262.867188 455.382812 268.597656 452.148438 L 420.191406 367 C 431.792969 360.460938 439 348.261719 439 335.183594 L 439 164.816406 C 439 151.738281 431.792969 139.539062 420.191406 133.035156 L 268.597656 47.851562 C 262.867188 44.617188 256.433594 43 250 43 Z M 250 142 C 284.03125 142 315.496094 157.785156 335.886719 184.644531 L 296.441406 207.496094 C 284.59375 194.523438 267.753906 187 250 187 C 215.265625 187 187 215.265625 187 250 C 187 284.734375 215.265625 313 250 313 C 267.753906 313 284.59375 305.476562 296.441406 292.503906 L 335.886719 315.355469 C 315.496094 342.214844 284.03125 358 250 358 C 190.445312 358 142 309.554688 142 250 C 142 190.445312 190.445312 142 250 142 Z M 340 205 L 358 205 L 358 223 L 376 223 L 376 205 L 394 205 L 394 223 L 412 223 L 412 241 L 394 241 L 394 259 L 412 259 L 412 277 L 394 277 L 394 295 L 376 295 L 376 277 L 358 277 L 358 295 L 340 295 L 340 277 L 322 277 L 322 259 L 340 259 L 340 241 L 322 241 L 322 223 L 340 223 Z M 358 241 L 358 259 L 376 259 L 376 241 Z M 358 241 "/>
</g>
</svg>
