<?xml version="1.0" encoding="UTF-8"?>
<svg xmlns="http://www.w3.org/2000/svg" xmlns:xlink="http://www.w3.org/1999/xlink" width="30pt" height="30pt" viewBox="0 0 30 30" version="1.1">
<g id="surface12799546">
<path style=" stroke:none;fill-rule:nonzero;fill:rgb(80%,80%,80%);fill-opacity:1;" d="M 3.75 30 C 1.679688 30 0 28.320312 0 26.25 L 0 3.75 C 0 1.679688 1.679688 0 3.75 0 L 26.25 0 C 28.320312 0 30 1.679688 30 3.75 L 30 26.25 C 30 28.320312 28.320312 30 26.25 30 Z M 3.75 30 "/>
<path style=" stroke:none;fill-rule:nonzero;fill:rgb(0%,0%,0%);fill-opacity:1;" d="M 24.800781 8.921875 C 24.078125 9.242188 23.304688 9.457031 22.492188 9.554688 C 23.320312 9.058594 23.957031 8.269531 24.257812 7.332031 C 23.480469 7.789062 22.621094 8.125 21.703125 8.304688 C 20.96875 7.523438 19.925781 7.035156 18.769531 7.035156 C 16.546875 7.035156 14.75 8.835938 14.75 11.058594 C 14.75 11.371094 14.785156 11.679688 14.851562 11.972656 C 11.511719 11.804688 8.546875 10.203125 6.5625 7.769531 C 6.21875 8.363281 6.019531 9.054688 6.019531 9.792969 C 6.019531 11.1875 6.730469 12.417969 7.808594 13.140625 C 7.148438 13.121094 6.527344 12.9375 5.988281 12.636719 C 5.988281 12.65625 5.988281 12.671875 5.988281 12.6875 C 5.988281 14.636719 7.371094 16.261719 9.210938 16.628906 C 8.875 16.722656 8.519531 16.773438 8.152344 16.773438 C 7.894531 16.773438 7.640625 16.746094 7.394531 16.699219 C 7.90625 18.296875 9.394531 19.460938 11.152344 19.492188 C 9.777344 20.570312 8.042969 21.214844 6.160156 21.214844 C 5.835938 21.214844 5.515625 21.195312 5.199219 21.160156 C 6.980469 22.300781 9.089844 22.964844 11.363281 22.964844 C 18.761719 22.964844 22.804688 16.835938 22.804688 11.523438 C 22.804688 11.347656 22.800781 11.175781 22.792969 11.003906 C 23.578125 10.433594 24.261719 9.726562 24.800781 8.921875 Z M 24.800781 8.921875 "/>
</g>
</svg>
